<svg width="29" height="29" viewBox="0 0 29 29" fill="none" xmlns="http://www.w3.org/2000/svg">
<rect width="29" height="29" fill="#231F20"/>
<path d="M17.2092 8.47457C20.1688 12.652 20.1814 16.7759 17.199 20.9302C18.7561 20.7572 20.0751 20.1085 21.0341 18.8625C22.6752 16.7319 22.7583 12.9841 21.2179 10.784C20.2594 9.41417 18.8837 8.69497 17.2092 8.47457ZM12.7259 20.6015C12.892 20.5435 13.0105 20.5102 13.1209 20.4614C14.2187 19.9717 15.0693 19.224 15.6081 18.1931C16.6461 16.2065 16.7094 14.1422 16.0046 12.058C15.5195 10.624 14.5301 9.57609 13.0804 8.93857C12.9746 8.89217 12.8611 8.86269 12.7259 8.81677V20.602V20.6015ZM6.88265 20.9577H9.81037V8.45523H6.88316V20.9573L6.88265 20.9577ZM4 6.02115C4.14886 6.0139 4.27292 6.0023 4.39698 6.0023C8.4088 6.0023 12.4211 5.99554 16.4329 6.0052C18.5242 6.01004 20.4564 6.5098 22.1142 7.77373C23.7674 9.0333 24.6778 10.7076 25.05 12.6598C25.5037 15.0397 25.2839 17.3453 24.0171 19.4845C22.6712 21.7553 20.5384 22.9336 17.875 23.3019C17.2912 23.3822 16.6927 23.3938 16.1013 23.3952C12.2444 23.4029 8.38753 23.3991 4.53116 23.3991H4V6.02115Z" fill="white"/>
</svg>
