<svg width="18" height="18" viewBox="0 0 18 18" fill="none" xmlns="http://www.w3.org/2000/svg">
<path d="M8.00074 5.75V9.43C8.00074 9.78 8.19074 10.11 8.49074 10.29L11.6107 12.14C11.9707 12.35 12.4307 12.23 12.6407 11.88C12.8507 11.52 12.7407 11.06 12.3807 10.85L9.51074 9.14V5.74C9.50074 5.34 9.16074 5 8.75074 5C8.34074 5 8.00074 5.34 8.00074 5.75ZM18.0007 6.5V1.21C18.0007 0.759999 17.4607 0.539999 17.1507 0.859999L15.3707 2.64C13.5607 0.829998 10.9807 -0.210001 8.16074 0.0399986C3.97074 0.419999 0.52074 3.79 0.0607396 7.98C-0.53926 13.4 3.69074 18 9.00074 18C13.5907 18 17.3807 14.56 17.9307 10.12C18.0007 9.52 17.5307 9 16.9307 9C16.4307 9 16.0107 9.37 15.9507 9.86C15.5207 13.35 12.5107 16.05 8.90074 16C5.19074 15.95 2.06074 12.82 2.00074 9.1C1.94074 5.2 5.11074 2 9.00074 2C10.9307 2 12.6807 2.79 13.9507 4.05L11.8607 6.14C11.5407 6.46 11.7607 7 12.2107 7H17.5007C17.7807 7 18.0007 6.78 18.0007 6.5Z" fill="white"/>
</svg>
