<svg width="46" height="46" viewBox="0 0 46 46" fill="none" xmlns="http://www.w3.org/2000/svg" xmlns:xlink="http://www.w3.org/1999/xlink">
<path d="M23.0007 3.8335C15.5832 3.8335 9.58398 9.83266 9.58398 17.2502C9.58398 25.2427 18.0557 36.2635 21.544 40.461C22.3107 41.381 23.7098 41.381 24.4765 40.461C27.9457 36.2635 36.4173 25.2427 36.4173 17.2502C36.4173 9.83266 30.4182 3.8335 23.0007 3.8335ZM23.0007 22.0418C20.3557 22.0418 18.209 19.8952 18.209 17.2502C18.209 14.6052 20.3557 12.4585 23.0007 12.4585C25.6457 12.4585 27.7923 14.6052 27.7923 17.2502C27.7923 19.8952 25.6457 22.0418 23.0007 22.0418Z" fill="#ca4f4f"/>
<circle cx="22.9997" cy="18.0715" r="9.85714" fill="white"/>
<text xmlns="http://www.w3.org/2000/svg" x="15.4852" y="20.4282" width="17.25" height="4.10714" fill="#ca4f4f" font-size="7">YOU</text>
</svg>
