<svg width="28" height="28" viewBox="0 0 28 28" fill="none" xmlns="http://www.w3.org/2000/svg">
<path d="M27.9838 21.3633C27.9915 21.3376 27.9969 21.3112 28 21.2845V6.7277V6.7166C27.9987 6.64869 27.9845 6.58164 27.9582 6.51897C27.9511 6.50244 27.9431 6.48632 27.9342 6.47067C27.9242 6.44644 27.9127 6.42288 27.8996 6.40017C27.8817 6.37852 27.8628 6.3552 27.8438 6.33411C27.8393 6.32967 27.836 6.32467 27.8321 6.32078L27.8287 6.3169C27.806 6.29495 27.7817 6.27455 27.7562 6.25583C27.7258 6.23704 27.6941 6.22034 27.6614 6.20587H27.6586L14.2329 0.0499621C14.1592 0.0170277 14.0794 0 13.9986 0C13.9178 0 13.838 0.0170277 13.7643 0.0499621L0.33864 6.20532C0.305912 6.21979 0.274224 6.23648 0.243798 6.25528C0.218274 6.27399 0.194044 6.29439 0.171273 6.31634L0.167925 6.32023C0.16402 6.32412 0.160673 6.32911 0.15621 6.33355C0.135568 6.35465 0.116599 6.37796 0.10042 6.39961C0.0873374 6.42233 0.0757825 6.44588 0.0658312 6.47012C0.056947 6.48576 0.0489383 6.50189 0.0418417 6.51841C0.0155314 6.58109 0.00133615 6.64813 0 6.71604V6.72714V21.2845C0.00313041 21.3112 0.00854288 21.3376 0.0161787 21.3633C0.0196912 21.4056 0.0281159 21.4473 0.0412839 21.4877C0.0567131 21.5197 0.0754078 21.55 0.097073 21.5782C0.113757 21.6096 0.133769 21.6392 0.156768 21.6664C0.188025 21.6954 0.222677 21.7206 0.259977 21.7414C0.280331 21.7587 0.301963 21.7745 0.324693 21.7886L13.7699 27.9506H13.7777C13.8483 27.9831 13.9252 28 14.0031 28C14.0809 28 14.1578 27.9831 14.2285 27.9506H14.2363L27.6814 21.7886C27.7372 21.7477 27.7929 21.707 27.8488 21.6664C27.8718 21.6392 27.8918 21.6096 27.9085 21.5782C27.9302 21.55 27.9489 21.5197 27.9643 21.4877C27.9756 21.4471 27.9821 21.4054 27.9838 21.3633ZM1.11132 7.58428L5.38867 9.5428V13.9506C5.38841 14.0568 5.41875 14.1608 5.4761 14.2503C5.53345 14.3399 5.61541 14.4112 5.71225 14.4558L8.5017 15.7326C8.57556 15.765 8.6553 15.782 8.73602 15.7825C8.84316 15.7839 8.94821 15.753 9.03728 15.6937C9.11639 15.6441 9.18147 15.5753 9.22638 15.4937C9.27129 15.4121 9.29453 15.3204 9.29391 15.2274V11.3303L13.4407 13.2289V26.5777L1.11132 20.9292V7.58428ZM14.5565 13.2289L26.8859 7.58428V20.9292L14.5565 26.5777V13.2289ZM13.9986 12.2685L10.032 10.4532L22.0713 4.863L26.1104 6.71715L13.9986 12.2685ZM13.9986 1.16579L17.9708 2.98663L5.9315 8.57131L1.88679 6.71715L13.9986 1.16579ZM8.56921 20.5695C8.59985 20.5032 8.64332 20.4436 8.69711 20.3941C8.75091 20.3446 8.81398 20.3061 8.88273 20.2808C8.95148 20.2556 9.02456 20.244 9.09779 20.2469C9.17102 20.2498 9.24297 20.2669 9.30953 20.2975L12.1118 21.5815C12.1784 21.612 12.2382 21.6553 12.288 21.7088C12.3378 21.7623 12.3764 21.8251 12.4018 21.8935C12.4272 21.9619 12.4388 22.0346 12.436 22.1075C12.4331 22.1803 12.4158 22.2519 12.3852 22.3182C12.3545 22.3844 12.3111 22.444 12.2573 22.4935C12.2035 22.543 12.1404 22.5815 12.0716 22.6067C11.9328 22.6577 11.7793 22.6518 11.6449 22.5902L8.84258 21.3061C8.776 21.2756 8.71612 21.2324 8.66635 21.1789C8.61658 21.1253 8.5779 21.0626 8.55251 20.9942C8.52712 20.9258 8.51553 20.853 8.5184 20.7802C8.52126 20.7073 8.53853 20.6357 8.56921 20.5695ZM12.3846 24.4044C12.3226 24.5379 12.2099 24.6415 12.0712 24.6924C11.9325 24.7433 11.7792 24.7373 11.6449 24.6758L8.84258 23.3918C8.70808 23.3298 8.60384 23.2172 8.55278 23.0787C8.50172 22.9403 8.50803 22.7873 8.57032 22.6535C8.63262 22.5196 8.74579 22.4159 8.88494 22.3651C9.02409 22.3143 9.17782 22.3206 9.31232 22.3826L12.1146 23.6666C12.181 23.6974 12.2407 23.7409 12.2902 23.7946C12.3397 23.8484 12.3781 23.9113 12.4032 23.9798C12.4283 24.0483 12.4395 24.1211 12.4364 24.1939C12.4332 24.2668 12.4156 24.3383 12.3846 24.4044ZM26.1121 18.3445C26.0084 18.4494 25.867 18.5091 25.7191 18.5104C25.5711 18.5116 25.4287 18.4543 25.3232 18.3511L25.1882 18.219V20.2464C25.1882 20.3936 25.1295 20.5348 25.0248 20.6389C24.9202 20.743 24.7783 20.8015 24.6303 20.8015C24.4824 20.8015 24.3405 20.743 24.2358 20.6389C24.1312 20.5348 24.0724 20.3936 24.0724 20.2464V18.6365L23.8917 18.8902C23.8401 18.9627 23.7718 19.0218 23.6925 19.0625C23.6131 19.1033 23.5252 19.1245 23.4359 19.1245C23.3205 19.1247 23.2079 19.089 23.114 19.0223C22.9933 18.9372 22.9114 18.8079 22.8865 18.6627C22.8616 18.5176 22.8957 18.3686 22.9812 18.2484L24.1751 16.5725C24.1846 16.5597 24.198 16.5531 24.208 16.5414C24.2181 16.5297 24.222 16.5153 24.2326 16.5042C24.2504 16.4901 24.269 16.4772 24.2884 16.4654C24.3151 16.4439 24.3441 16.4253 24.3748 16.4098C24.3869 16.4009 24.3996 16.3927 24.4128 16.3854C24.4327 16.3798 24.453 16.3755 24.4736 16.3726C24.5084 16.3616 24.5443 16.3543 24.5807 16.351C24.5952 16.3474 24.6099 16.3446 24.6248 16.3427H24.6275C24.6463 16.3453 24.665 16.349 24.6833 16.3538C24.7189 16.3566 24.7541 16.3633 24.7882 16.3738C24.8048 16.3765 24.8212 16.3802 24.8373 16.3849C24.8579 16.3956 24.8777 16.4078 24.8965 16.4215C24.9146 16.4281 24.9323 16.4359 24.9495 16.4448C24.9623 16.4537 24.969 16.4676 24.9807 16.4776C24.9924 16.4876 25.0069 16.4909 25.0181 16.502L25.0214 16.5053L26.1048 17.5595C26.2104 17.6627 26.2705 17.8033 26.2718 17.9505C26.2732 18.0977 26.2157 18.2394 26.1121 18.3445Z" fill="black" fill-opacity="0.38"/>
</svg>
