<svg width="28" height="28" viewBox="0 0 28 28" fill="none" xmlns="http://www.w3.org/2000/svg">
<path d="M24.5 4.66667C24.5 15.6217 15.6217 24.5 4.66667 24.5C4.025 24.5 3.5 23.975 3.5 23.3333V19.2617C3.5 18.62 4.025 18.095 4.66667 18.095C6.11333 18.095 7.525 17.8617 8.83167 17.43C8.94833 17.3833 9.07667 17.3717 9.19333 17.3717C9.49667 17.3717 9.78833 17.4883 10.0217 17.71L12.5883 20.2767C15.89 18.585 18.5967 15.89 20.2767 12.5883L17.71 10.0217C17.3833 9.695 17.29 9.24 17.4183 8.83167C17.85 7.525 18.0833 6.125 18.0833 4.66667C18.0833 4.025 18.6083 3.5 19.25 3.5H23.3333C23.975 3.5 24.5 4.025 24.5 4.66667ZM8.86667 19.8567C7.875 20.1367 6.86 20.3117 5.83333 20.3817V22.12C7.37333 22.015 8.855 21.7117 10.2667 21.245L8.86667 19.8567ZM20.37 5.83333C20.3 6.87167 20.125 7.88667 19.845 8.855L21.245 10.255C21.7233 8.855 22.0267 7.37333 22.1317 5.83333H20.37Z" fill="black" fill-opacity="0.38"/>
</svg>
