<svg width="30" height="28" viewBox="0 0 30 28" fill="none" xmlns="http://www.w3.org/2000/svg">
<path d="M24.4383 21.0754L19.7709 18.5795C19.3058 18.3317 18.7665 18.2332 18.2356 18.2989C17.7047 18.3647 17.2116 18.5911 16.8319 18.9435L14.684 20.944C14.587 21.0352 14.4633 21.0975 14.3283 21.1231C14.1934 21.1487 14.0533 21.1365 13.9259 21.0878C10.9823 19.9344 8.64077 17.75 7.40422 15.0037C7.35218 14.8846 7.33906 14.7538 7.36653 14.6278C7.394 14.5017 7.46081 14.3861 7.55857 14.2954L9.70261 12.2914C10.0802 11.9373 10.3229 11.4774 10.3933 10.9823C10.4638 10.4871 10.3582 9.98411 10.0927 9.55036L7.41726 5.19498C7.16205 4.77658 6.77075 4.44481 6.29998 4.24771C5.82922 4.05061 5.30344 3.9984 4.79876 4.09866C3.46399 4.3823 2.26826 5.07209 1.39985 6.05941C0.531439 7.04673 0.0396831 8.27548 0.00201521 9.55218C-0.0353274 11.9761 0.446648 14.3826 1.41966 16.6304C2.39267 18.8782 3.83711 20.9221 5.66821 22.642L5.7239 22.6944C9.33254 26.0396 14.1954 27.9425 19.2821 28C19.4439 28 19.6067 27.9979 19.7683 27.9936C21.1366 27.9584 22.4535 27.4997 23.5117 26.6896C24.5699 25.8795 25.3094 24.7641 25.6136 23.519C25.721 23.048 25.665 22.5574 25.4538 22.1181C25.2425 21.6788 24.8868 21.3136 24.4383 21.0754ZM23.988 23.1739C23.7657 24.0825 23.2259 24.8964 22.4535 25.4875C21.6811 26.0785 20.72 26.4132 19.7214 26.4387C15.151 26.5585 10.2438 24.7022 6.89525 21.5875L6.86301 21.5572C3.53005 18.4387 1.53972 13.8555 1.66866 9.59609C1.69601 8.66431 2.05475 7.76749 2.68839 7.04681C3.32204 6.32613 4.19459 5.82254 5.16869 5.61531C5.21678 5.60522 5.26593 5.60013 5.31523 5.60012C5.44943 5.60289 5.58052 5.63834 5.69551 5.70296C5.8105 5.76758 5.90538 5.85912 5.97075 5.9685L8.64623 10.3239C8.73032 10.4613 8.76376 10.6207 8.7414 10.7776C8.71905 10.9345 8.64215 11.0802 8.52249 11.1923L6.37845 13.1963C6.04838 13.5036 5.82312 13.895 5.73104 14.3215C5.63896 14.7479 5.68418 15.1902 5.86101 15.5927C7.26717 18.7251 9.93723 21.216 13.2948 22.5276C13.726 22.6925 14.1999 22.7347 14.6568 22.6488C15.1136 22.5629 15.533 22.3528 15.8622 22.045L18.0098 20.0445C18.0098 20.0445 18.2866 19.861 18.4549 19.8401C18.6233 19.8193 18.7943 19.8505 18.9418 19.9291L23.6092 22.4249C23.7493 22.4962 23.8615 22.6072 23.9295 22.7418C23.9976 22.8764 24.0181 23.0277 23.988 23.1739ZM22.855 2.36773e-10C21.6625 -9.37208e-06 20.4888 0.278223 19.4409 0.809378C18.393 1.34053 17.504 2.10775 16.855 3.0412C16.206 3.97465 15.8175 5.04471 15.7249 6.15399C15.6322 7.26326 15.8384 8.37655 16.3246 9.39253L14.5557 14.4285L20.3238 12.9132C21.132 13.2008 21.9901 13.3471 22.855 13.3449C24.7506 13.3432 26.568 12.6394 27.9077 11.3883C29.2475 10.1372 30 8.44097 30 6.67244C30 4.90392 29.2475 3.20773 27.9077 1.95659C26.568 0.705449 24.7506 0.00170781 22.855 2.36773e-10ZM22.855 11.7893C22.1156 11.7919 21.3836 11.652 20.7048 11.3786L20.4326 11.2686L17.114 12.1404L18.1215 9.27222L17.9632 8.98359C17.5702 8.26858 17.367 7.47598 17.3706 6.67245C17.3706 5.66043 17.6922 4.67115 18.2949 3.82969C18.8975 2.98824 19.7541 2.33241 20.7563 1.94514C21.7584 1.55786 22.8612 1.45654 23.9251 1.65398C24.989 1.85142 25.9662 2.33876 26.7332 3.05437C27.5002 3.76998 28.0226 4.68171 28.2342 5.67428C28.4458 6.66685 28.3372 7.69568 27.9221 8.63065C27.5069 9.56563 26.804 10.3648 25.9021 10.927C25.0001 11.4893 23.9398 11.7893 22.855 11.7893Z" fill="white"/>
</svg>
