<svg width="22" height="23" viewBox="0 0 22 23" fill="none" xmlns="http://www.w3.org/2000/svg">
<path d="M21.5 11.5101C21.5 17.1755 16.8088 21.7856 11 21.7856C5.19124 21.7856 0.5 17.1755 0.5 11.5101C0.5 5.84479 5.19124 1.23462 11 1.23462C16.8088 1.23462 21.5 5.84479 21.5 11.5101Z" stroke="#3278B0"/>
<path d="M11.7748 15.3286C11.1372 15.3286 10.4997 15.3286 9.86218 15.3286C9.41172 15.3286 8.98096 15.7168 9.00065 16.1726C9.02034 16.6307 9.37972 17.0165 9.86218 17.0165C10.4997 17.0165 11.1372 17.0165 11.7748 17.0165C12.2252 17.0165 12.656 16.6283 12.6363 16.1726C12.6166 15.7168 12.2597 15.3286 11.7748 15.3286Z" fill="white"/>
<path d="M9.87194 11.4057C10.1895 11.4057 10.5045 11.4057 10.8221 11.4057C10.5341 11.1235 10.2486 10.8438 9.96056 10.5617C9.96056 11.1935 9.96056 11.8252 9.96056 12.457C9.96056 13.4649 9.96056 14.4704 9.96056 15.4783C9.96056 15.7098 9.96056 15.9413 9.96056 16.1728C9.96056 16.614 10.3569 17.036 10.8221 17.0167C11.2898 16.9974 11.6836 16.6454 11.6836 16.1728C11.6836 15.541 11.6836 14.9092 11.6836 14.2775C11.6836 13.2696 11.6836 12.2641 11.6836 11.2562C11.6836 11.0247 11.6836 10.7932 11.6836 10.5617C11.6836 10.106 11.2898 9.71777 10.8221 9.71777C10.5045 9.71777 10.1895 9.71777 9.87194 9.71777C9.42149 9.71777 8.99072 10.106 9.01042 10.5617C9.03011 11.0199 9.38949 11.4057 9.87194 11.4057Z" fill="#3278B0"/>
<path d="M10.2145 7.70437C10.2145 7.71401 10.2145 7.72125 10.212 7.73089C10.2219 7.65614 10.2317 7.58139 10.244 7.50664C10.2391 7.53317 10.2342 7.55728 10.2219 7.58139C10.2514 7.51388 10.281 7.44636 10.308 7.37885C10.3007 7.39331 10.2933 7.41019 10.281 7.42225C10.3253 7.36438 10.3696 7.30892 10.4164 7.25105C10.3991 7.27275 10.3819 7.28722 10.3622 7.3041C10.4213 7.26069 10.4779 7.21729 10.537 7.17148C10.5222 7.18112 10.5074 7.19077 10.4927 7.198C10.5616 7.16906 10.6305 7.14013 10.6994 7.11361C10.6723 7.12325 10.6502 7.13048 10.6231 7.13531C10.6994 7.12566 10.7757 7.11602 10.852 7.10396C10.8348 7.10637 10.8151 7.10637 10.7979 7.10396C10.8742 7.11361 10.9505 7.12325 11.0268 7.13531C10.9997 7.13048 10.9751 7.12566 10.9505 7.11361C11.0194 7.14254 11.0883 7.17148 11.1573 7.198C11.1425 7.19077 11.1253 7.18353 11.113 7.17148C11.172 7.21488 11.2287 7.25828 11.2877 7.3041C11.2656 7.28722 11.2508 7.27034 11.2336 7.25105C11.2779 7.30892 11.3222 7.36438 11.369 7.42225C11.3591 7.40778 11.3493 7.39331 11.3419 7.37885C11.3714 7.44636 11.401 7.51388 11.428 7.58139C11.4182 7.55487 11.4108 7.53317 11.4059 7.50664C11.4157 7.58139 11.4256 7.65614 11.4379 7.73089C11.4354 7.71401 11.4354 7.69472 11.4379 7.67784C11.428 7.75259 11.4182 7.82734 11.4059 7.90209C11.4108 7.87557 11.4157 7.85146 11.428 7.82734C11.3985 7.89486 11.369 7.96237 11.3419 8.02989C11.3493 8.01542 11.3566 7.99854 11.369 7.98649C11.3246 8.04436 11.2803 8.09982 11.2336 8.15769C11.2508 8.13599 11.268 8.12152 11.2877 8.10464C11.2287 8.14804 11.172 8.19145 11.113 8.23726C11.1277 8.22762 11.1425 8.21797 11.1573 8.21074C11.0883 8.23967 11.0194 8.26861 10.9505 8.29513C10.9776 8.28549 10.9997 8.27825 11.0268 8.27343C10.9505 8.28307 10.8742 8.29272 10.7979 8.30478C10.8151 8.30236 10.8348 8.30236 10.852 8.30478C10.7757 8.29513 10.6994 8.28549 10.6231 8.27343C10.6502 8.27825 10.6748 8.28307 10.6994 8.29513C10.6305 8.2662 10.5616 8.23726 10.4927 8.21074C10.5074 8.21797 10.5247 8.2252 10.537 8.23726C10.4779 8.19386 10.4213 8.15045 10.3622 8.10464C10.3844 8.12152 10.3991 8.1384 10.4164 8.15769C10.372 8.09982 10.3277 8.04436 10.281 7.98649C10.2908 8.00096 10.3007 8.01542 10.308 8.02989C10.2785 7.96237 10.249 7.89486 10.2219 7.82734C10.2317 7.85387 10.2391 7.87557 10.244 7.90209C10.2342 7.82734 10.2244 7.75259 10.212 7.67784C10.212 7.68508 10.2145 7.69472 10.2145 7.70437C10.2268 7.92862 10.3031 8.14081 10.468 8.29995C10.6182 8.44704 10.8619 8.55555 11.076 8.54831C11.3 8.53867 11.529 8.46633 11.684 8.29995C11.8342 8.14081 11.9499 7.92621 11.9376 7.70437C11.9228 7.4126 11.8243 7.14254 11.6102 6.93276C11.4034 6.73021 11.1154 6.61206 10.8225 6.61206C10.2047 6.61206 9.72467 7.11119 9.70744 7.70437C9.69021 8.29513 10.2219 8.78703 10.8077 8.79668C11.0957 8.8015 11.3985 8.68576 11.6003 8.48562C11.8194 8.26861 11.9203 8.00578 11.9351 7.70437C11.9474 7.49459 11.8317 7.25346 11.6816 7.10878C11.5314 6.9617 11.2877 6.85319 11.0736 6.86042C10.5887 6.88212 10.2391 7.23176 10.2145 7.70437Z" fill="#3278B0"/>
</svg>
