<svg width="20" height="20" viewBox="0 0 20 20" fill="none" xmlns="http://www.w3.org/2000/svg">
<path d="M19.7996 14.8803C19.805 14.8624 19.8088 14.844 19.811 14.8254V4.68608V4.67835C19.8101 4.63105 19.8 4.58435 19.7814 4.54069C19.7764 4.52918 19.7707 4.51795 19.7644 4.50705C19.7574 4.49017 19.7492 4.47377 19.74 4.45794C19.7273 4.44286 19.7139 4.42662 19.7005 4.41193C19.6973 4.40884 19.695 4.40536 19.6922 4.40265L19.6898 4.39994C19.6737 4.38465 19.6566 4.37044 19.6385 4.35741C19.617 4.34432 19.5946 4.33269 19.5714 4.32261H19.5694L10.0703 0.0348004C10.0182 0.0118604 9.96167 0 9.90452 0C9.84736 0 9.79086 0.0118604 9.73873 0.0348004L0.2396 4.32222C0.216444 4.3323 0.194023 4.34393 0.172496 4.35702C0.154437 4.37006 0.137293 4.38427 0.121182 4.39956L0.118813 4.40226C0.11605 4.40497 0.113682 4.40845 0.110524 4.41154C0.095919 4.42624 0.0824981 4.44248 0.071051 4.45756C0.0617944 4.47338 0.0536188 4.48979 0.0465779 4.50667C0.0402921 4.51756 0.0346256 4.5288 0.0296045 4.54031C0.010989 4.58396 0.000945371 4.63066 0 4.67796V4.6857V14.8254C0.00221488 14.844 0.00604439 14.8624 0.011447 14.8803C0.0139323 14.9098 0.019893 14.9388 0.0292098 14.9669C0.0401265 14.9892 0.0533537 15.0103 0.0686826 15.03C0.0804873 15.0519 0.0946463 15.0725 0.110919 15.0914C0.133034 15.1116 0.157552 15.1292 0.183943 15.1436C0.198344 15.1557 0.21365 15.1667 0.229732 15.1765L9.74268 19.4686H9.7482C9.79818 19.4912 9.8526 19.503 9.90767 19.503C9.96275 19.503 10.0172 19.4912 10.0671 19.4686H10.0727L19.5856 15.1765C19.625 15.1481 19.6645 15.1197 19.704 15.0914C19.7203 15.0725 19.7345 15.0519 19.7463 15.03C19.7616 15.0103 19.7748 14.9892 19.7857 14.9669C19.7937 14.9387 19.7984 14.9096 19.7996 14.8803ZM0.786298 5.28272L3.81268 6.6469V9.71708C3.81249 9.79103 3.83396 9.86349 3.87454 9.92586C3.91512 9.98823 3.9731 10.0379 4.04162 10.0689L6.01526 10.9583C6.06752 10.9809 6.12394 10.9927 6.18105 10.9931C6.25685 10.9941 6.33118 10.9725 6.3942 10.9312C6.45017 10.8967 6.49622 10.8487 6.528 10.7919C6.55977 10.7351 6.57621 10.6712 6.57577 10.6064V7.89198L9.50979 9.2144V18.5123L0.786298 14.5779V5.28272ZM10.2992 9.2144L19.0227 5.28272V14.5779L10.2992 18.5123V9.2144ZM9.90452 8.54546L7.098 7.28104L15.6162 3.38725L18.4741 4.67874L9.90452 8.54546ZM9.90452 0.812012L12.715 2.0803L4.19675 5.97022L1.33497 4.67874L9.90452 0.812012ZM6.06302 14.3274C6.08471 14.2812 6.11546 14.2397 6.15352 14.2052C6.19158 14.1707 6.23621 14.1439 6.28485 14.1263C6.3335 14.1087 6.3852 14.1007 6.43702 14.1027C6.48883 14.1047 6.53974 14.1166 6.58683 14.1379L8.56955 15.0323C8.61664 15.0535 8.659 15.0837 8.6942 15.1209C8.72941 15.1582 8.75678 15.2019 8.77474 15.2496C8.7927 15.2972 8.8009 15.3479 8.79888 15.3986C8.79686 15.4494 8.78466 15.4993 8.76296 15.5454C8.74127 15.5915 8.71051 15.633 8.67245 15.6675C8.63438 15.702 8.58976 15.7288 8.54112 15.7464C8.44289 15.7819 8.33427 15.7778 8.23916 15.7349L6.25644 14.8405C6.20934 14.8192 6.16697 14.7891 6.13175 14.7518C6.09654 14.7145 6.06917 14.6708 6.05121 14.6232C6.03325 14.5755 6.02504 14.5249 6.02707 14.4741C6.0291 14.4234 6.04132 14.3735 6.06302 14.3274ZM8.76257 16.9985C8.7187 17.0915 8.63894 17.1637 8.5408 17.1991C8.44266 17.2346 8.33417 17.2304 8.23916 17.1876L6.25644 16.2932C6.16128 16.25 6.08752 16.1716 6.0514 16.0752C6.01527 15.9787 6.01974 15.8722 6.06381 15.7789C6.10789 15.6857 6.18796 15.6135 6.28641 15.5781C6.38487 15.5427 6.49364 15.5471 6.5888 15.5902L8.57152 16.4846C8.61851 16.5061 8.66073 16.5364 8.69577 16.5738C8.7308 16.6112 8.75797 16.6551 8.77571 16.7028C8.79345 16.7505 8.80142 16.8012 8.79917 16.8519C8.79691 16.9027 8.78448 16.9525 8.76257 16.9985ZM18.4752 12.7776C18.4019 12.8507 18.3018 12.8923 18.1972 12.8931C18.0925 12.894 17.9917 12.8541 17.9171 12.7822L17.8216 12.6902V14.1023C17.8216 14.2049 17.78 14.3032 17.706 14.3757C17.6319 14.4483 17.5315 14.489 17.4268 14.489C17.3222 14.489 17.2218 14.4483 17.1477 14.3757C17.0737 14.3032 17.0321 14.2049 17.0321 14.1023V12.981L16.9042 13.1577C16.8677 13.2082 16.8194 13.2493 16.7633 13.2777C16.7071 13.3061 16.6449 13.3209 16.5817 13.3209C16.5001 13.3211 16.4204 13.2962 16.354 13.2497C16.2686 13.1904 16.2107 13.1003 16.193 12.9993C16.1754 12.8982 16.1995 12.7944 16.26 12.7107L17.1047 11.5433C17.1115 11.5344 17.1209 11.5298 17.128 11.5217C17.1351 11.5136 17.1379 11.5035 17.1454 11.4958C17.158 11.486 17.1712 11.4769 17.1849 11.4687C17.2038 11.4537 17.2243 11.4408 17.2461 11.43C17.2546 11.4238 17.2636 11.4181 17.2729 11.413C17.287 11.4091 17.3014 11.4061 17.3159 11.4041C17.3406 11.3964 17.366 11.3914 17.3917 11.389C17.402 11.3866 17.4124 11.3846 17.4229 11.3832H17.4249C17.4382 11.3851 17.4514 11.3876 17.4643 11.391C17.4895 11.393 17.5144 11.3976 17.5386 11.4049C17.5503 11.4068 17.5619 11.4094 17.5733 11.4126C17.5879 11.4201 17.6019 11.4286 17.6151 11.4382C17.628 11.4428 17.6405 11.4482 17.6526 11.4544C17.6617 11.4606 17.6664 11.4702 17.6747 11.4772C17.683 11.4842 17.6933 11.4865 17.7012 11.4942L17.7036 11.4965L18.4701 12.2308C18.5448 12.3027 18.5873 12.4006 18.5883 12.5032C18.5892 12.6057 18.5486 12.7044 18.4752 12.7776Z" fill="#3278B0"/>
</svg>
