<svg width="22" height="22" viewBox="0 0 22 22" fill="none" xmlns="http://www.w3.org/2000/svg">
<path d="M17.9214 16.2213L14.4986 14.3003C14.1576 14.1096 13.7621 14.0337 13.3728 14.0843C12.9834 14.1349 12.6218 14.3092 12.3434 14.5804L10.7683 16.1201C10.6971 16.1903 10.6064 16.2383 10.5074 16.258C10.4085 16.2777 10.3058 16.2683 10.2123 16.2309C8.05365 15.3431 6.33657 13.6618 5.42976 11.5481C5.3916 11.4564 5.38198 11.3557 5.40212 11.2587C5.42226 11.1617 5.47126 11.0727 5.54295 11.0029L7.11525 9.46044C7.39216 9.18791 7.57011 8.83394 7.62179 8.45284C7.67346 8.07174 7.59602 7.68456 7.40134 7.35071L5.43932 3.99847C5.25217 3.67643 4.96521 3.42108 4.61999 3.26937C4.27476 3.11767 3.88919 3.07749 3.51909 3.15465C2.54026 3.37297 1.66339 3.90389 1.02656 4.6638C0.389722 5.42372 0.0291009 6.36946 0.00147782 7.35212C-0.0259067 9.21777 0.327542 11.07 1.04108 12.8001C1.75462 14.5302 2.81388 16.1033 4.15669 17.4271L4.19753 17.4674C6.84386 20.0421 10.41 21.5068 14.1402 21.551C14.2589 21.551 14.3783 21.5494 14.4967 21.5461C15.5002 21.519 16.4659 21.1659 17.2419 20.5424C18.018 19.9189 18.5602 19.0604 18.7833 18.1021C18.8621 17.7396 18.821 17.362 18.6661 17.0238C18.5112 16.6857 18.2504 16.4046 17.9214 16.2213ZM17.5912 17.8364C17.4282 18.5358 17.0324 19.1623 16.4659 19.6172C15.8995 20.0721 15.1947 20.3297 14.4623 20.3493C11.1107 20.4416 7.51215 19.0128 5.05652 16.6154L5.03288 16.5922C2.5887 14.1919 1.12912 10.6643 1.22369 7.38591C1.24374 6.66874 1.50682 5.97847 1.97149 5.42378C2.43616 4.86909 3.07604 4.48149 3.79037 4.32199C3.82564 4.31422 3.86168 4.3103 3.89783 4.3103C3.99625 4.31243 4.09238 4.33971 4.17671 4.38945C4.26103 4.43918 4.33061 4.50964 4.37855 4.59383L6.34057 7.94607C6.40224 8.05186 6.42676 8.17454 6.41036 8.29529C6.39397 8.41603 6.33757 8.52818 6.24983 8.61452L4.67753 10.1569C4.43548 10.3934 4.27029 10.6947 4.20276 11.0229C4.13524 11.3511 4.1684 11.6916 4.29807 12.0014C5.32926 14.4123 7.2873 16.3295 9.74952 17.339C10.0658 17.466 10.4133 17.4984 10.7483 17.4323C11.0833 17.3662 11.3909 17.2045 11.6323 16.9676L13.2072 15.4279C13.2955 15.3419 13.4101 15.2866 13.5336 15.2705C13.6571 15.2545 13.7825 15.2785 13.8906 15.339L17.3134 17.26C17.4161 17.3149 17.4984 17.4003 17.5483 17.5039C17.5982 17.6075 17.6132 17.7239 17.5912 17.8364ZM16.7604 1.82239e-10C15.8858 -7.21349e-06 15.0251 0.214143 14.2566 0.622962C13.4882 1.03178 12.8363 1.62229 12.3604 2.34075C11.8844 3.05921 11.5995 3.88281 11.5316 4.73659C11.4636 5.59038 11.6148 6.44726 11.9714 7.22923L10.6742 11.1053L14.9041 9.93899C15.4968 10.1604 16.126 10.273 16.7604 10.2713C18.1505 10.27 19.4832 9.72831 20.4657 8.76534C21.4481 7.80236 22 6.49684 22 5.13564C22 3.77444 21.4481 2.46892 20.4657 1.50595C19.4832 0.54297 18.1505 0.00131447 16.7604 1.82239e-10ZM16.7604 9.07401C16.2181 9.07595 15.6813 8.96832 15.1835 8.75786L14.9839 8.67321L12.5502 9.34422L13.2891 7.13663L13.173 6.91448C12.8848 6.36416 12.7358 5.75411 12.7384 5.13564C12.7384 4.35672 12.9743 3.59529 13.4163 2.94764C13.8582 2.29999 14.4864 1.79521 15.2213 1.49713C15.9562 1.19905 16.7649 1.12107 17.5451 1.27304C18.3252 1.425 19.0419 1.8001 19.6044 2.35088C20.1668 2.90167 20.5499 3.60342 20.7051 4.36738C20.8602 5.13134 20.7806 5.9232 20.4762 6.64284C20.1718 7.36247 19.6563 7.97755 18.9948 8.41029C18.3334 8.84304 17.5558 9.07402 16.7604 9.07401Z" fill="#3278B0"/>
</svg>
