<svg width="40" height="40" viewBox="0 0 40 40" fill="none" xmlns="http://www.w3.org/2000/svg">
<path d="M20 0C8.96842 0 0 8.96842 0 20C0 31.0316 8.96842 40 20 40C31.0316 40 40 31.0316 40 20C40 8.96842 31.0316 0 20 0ZM30.9895 27.4105C30.6105 28.3368 29.9368 29.2632 29.5158 29.6842C27.1158 32.0842 20.6737 29.9368 15.3684 24.6316C10.0632 19.3263 7.91579 12.9263 10.3158 10.4842C10.7368 10.0632 11.7053 9.38947 12.5895 9.01053C13.2632 8.71579 14.0632 8.92632 14.5263 9.51579L17.1789 12.8842C17.7263 13.5579 17.6421 14.5684 16.9684 15.1579C16.2947 15.7474 15.8316 16.1684 15.7053 16.2947C14.6947 17.3053 16.1684 19.4526 18.4 21.6842C20.6316 23.9158 22.7368 25.4316 23.7895 24.3789C23.9158 24.2526 24.3368 23.7895 24.9263 23.1158C25.5158 22.4421 26.4842 22.3579 27.2 22.9053L30.5684 25.5579C31.1158 25.8947 31.2842 26.6947 30.9895 27.4105Z" fill="#3278B0"/>
</svg>
