<svg width="90" height="20" viewBox="0 0 90 20" fill="none" xmlns="http://www.w3.org/2000/svg">
<rect y="2" width="15.5321" height="16.03" rx="2" fill="url(#paint0_linear_168_421)"/>
<path fill-rule="evenodd" clip-rule="evenodd" d="M9.49171 5.02441H6.61543V7.97333H9.49171V10.9222H6.61558V10.9222V7.97348H3.73926V10.9222V10.9224V13.8711H6.61543V13.8711H9.49171H9.49173H12.368V10.9222V10.9222V7.97333V7.97331V5.02441H9.49173H9.49171ZM6.61558 13.8712H3.73926V16.8201H6.61558V13.8712Z" fill="white"/>
<rect x="2.01318" y="3.20996" width="2.87631" height="3.02453" fill="white"/>
<path fill-rule="evenodd" clip-rule="evenodd" d="M24.1527 3.51172C25.2104 3.51172 26.1287 3.69477 26.9077 4.06089C27.6868 4.427 28.2867 4.94664 28.7075 5.61982C29.1282 6.29299 29.3386 7.09017 29.3386 8.01135C29.3386 8.92073 29.1282 9.71495 28.7075 10.394C28.2867 11.0731 27.6868 11.5928 26.9077 11.953C26.1287 12.3132 25.2104 12.4933 24.1527 12.4933H21.7474V15.9123H18.9839V3.51172H24.1527ZM24.1571 10.1657C25.004 10.1657 25.6478 9.96967 26.0887 9.5776C26.5295 9.18553 26.7499 8.62855 26.7499 7.90664C26.7499 7.17228 26.5295 6.60908 26.0887 6.21701C25.6478 5.82494 25.004 5.62891 24.1571 5.62891H21.8602V10.1657H24.1571ZM32.7535 14.7339C33.6879 15.7211 34.9944 16.2147 36.673 16.2147C38.3517 16.2147 39.6582 15.7211 40.5926 14.7339C41.527 13.7467 41.9942 12.3372 41.9942 10.5055V3.51172H39.3085V10.3985C39.3085 11.5522 39.0846 12.3997 38.637 12.9409C38.1894 13.482 37.5403 13.7526 36.6898 13.7526C34.9441 13.7526 34.0712 12.6346 34.0712 10.3985V3.51172H31.3519V10.5055C31.3519 12.3372 31.8191 13.7467 32.7535 14.7339ZM52.0319 15.9123L49.7772 12.4578H47.2887V15.9123H44.5831V3.51172H49.6436C50.6791 3.51172 51.5781 3.69477 52.3408 4.06089C53.1035 4.427 53.6908 4.94664 54.1028 5.61982C54.5148 6.29299 54.7208 7.09017 54.7208 8.01135C54.7208 8.93255 54.512 9.72676 54.0945 10.394C53.6769 11.0613 53.084 11.5721 52.3158 11.9264L54.9379 15.9123H52.0319ZM51.6878 6.2146C52.1286 6.60506 52.349 7.16596 52.349 7.8973C52.349 8.61625 52.1286 9.17405 51.6878 9.57071C51.2469 9.96737 50.6031 10.1657 49.7562 10.1657H47.4593V5.62891H49.7562C50.6031 5.62891 51.2469 5.82414 51.6878 6.2146ZM62.4079 3.51172C63.4656 3.51172 64.3839 3.69477 65.1629 4.06089C65.9419 4.427 66.5418 4.94664 66.9626 5.61982C67.3834 6.29299 67.5938 7.09017 67.5938 8.01135C67.5938 8.92073 67.3834 9.71495 66.9626 10.394C66.5418 11.0731 65.9419 11.5928 65.1629 11.953C64.3839 12.3132 63.4656 12.4933 62.4079 12.4933H60.0026V15.9123H57.2391V3.51172H62.4079ZM64.0563 9.5776C63.6155 9.96967 62.9716 10.1657 62.1248 10.1657H59.8278V5.62891H62.1248C62.9716 5.62891 63.6155 5.82494 64.0563 6.21701C64.4972 6.60908 64.7176 7.17228 64.7176 7.90664C64.7176 8.62855 64.4972 9.18553 64.0563 9.5776ZM69.6075 3.51172H72.3324V13.5739H78.2364V15.9123H69.6075V3.51172ZM89.1664 15.9123V13.6093H82.6963V10.7395H88.2155V8.50738H82.6963V5.81468H88.9457V3.51172H79.9622V15.9123H89.1664Z" fill="#734EE1"/>
<defs>
<linearGradient id="paint0_linear_168_421" x1="-3.9364" y1="11.9627" x2="11.9723" y2="27.1804" gradientUnits="userSpaceOnUse">
<stop stop-color="#734EE1"/>
<stop offset="1" stop-color="#734EE1"/>
</linearGradient>
</defs>
</svg>
